/* XPM */
static char *ecdab589514f4b45ff2367999fab2c16LmzBZAnlTeVi8b8O[] = {
/* columns rows colors chars-per-pixel */
"15 31 121 2 ",
"   c None",
".  c #2C2C2C",
"X  c gray18",
"o  c #393920",
"O  c #343435",
"+  c #343437",
"@  c #393939",
"#  c gray23",
"$  c #523700",
"%  c #703500",
"&  c #713500",
"*  c #5A4E00",
"=  c #5D4C00",
"-  c #42421F",
";  c #52441E",
":  c #735800",
">  c #747200",
",  c #45452D",
"<  c #4B4B28",
"1  c #4B4B36",
"2  c #48463F",
"3  c #4C4C38",
"4  c #505032",
"5  c #515134",
"6  c #727239",
"7  c #414143",
"8  c #424243",
"9  c #484849",
"0  c #48484A",
"q  c #5B574E",
"w  c #5F5F5D",
"e  c #5C5E63",
"r  c #6A6A6A",
"t  c #696A6F",
"y  c #6B6B6F",
"u  c #6B6C70",
"i  c #747570",
"p  c #797771",
"a  c #7A7B70",
"s  c #7E7D70",
"d  c #7E7E72",
"f  c #815C00",
"g  c #835C00",
"h  c #8B5D00",
"j  c #9C5C00",
"k  c #8B6700",
"l  c #996A00",
"z  c #927A00",
"x  c #AD6100",
"c  c #AE6600",
"v  c #A47400",
"b  c #B57C00",
"n  c #AF7D1E",
"m  c #9E7C36",
"M  c #C07E0C",
"N  c #E77B00",
"B  c #848000",
"V  c #888300",
"C  c #888800",
"Z  c #968000",
"A  c #9B9700",
"S  c #AD8600",
"D  c #A68C00",
"F  c #AD8E00",
"G  c #B78000",
"H  c #B88A00",
"J  c #B98B00",
"K  c #B6840D",
"L  c #A39D00",
"P  c #B99700",
"I  c #B99900",
"U  c #BB9D00",
"Y  c #BBA900",
"T  c #B1B101",
"R  c #B5B502",
"E  c #B2B204",
"W  c #B3B304",
"Q  c #B1B106",
"!  c #B9B000",
"~  c #B9B100",
"^  c #B9BA00",
"/  c #BFAA11",
"(  c #B4963F",
")  c #B99839",
"_  c #BBAC23",
"`  c #AFA637",
"'  c #BBBA37",
"]  c #B8B839",
"[  c #C88800",
"{  c #D69100",
"}  c #E88700",
"|  c #EF9B00",
" . c #ED9C01",
".. c #F19A00",
"X. c #F49D00",
"o. c #D4B400",
"O. c #D4B20F",
"+. c #C0B818",
"@. c #E5AA05",
"#. c #FAA700",
"$. c #FCA500",
"%. c #F7B500",
"&. c #D7C900",
"*. c #EFDA00",
"=. c #F0D700",
"-. c #FFD500",
";. c #FFD600",
":. c #F3DE00",
">. c #F4DC00",
",. c #E6E405",
"<. c #FBE600",
"1. c #FBE800",
"2. c #F5F500",
"3. c #959256",
"4. c #948561",
"5. c #9F9F77",
"6. c #9F9578",
"7. c gray54",
"8. c #8C8C8A",
"9. c #9A978B",
"0. c #929292",
/* pixels */
"                              ",
"          y 0.9.0.u           ",
"        8.5.' O.) 6.8.        ",
"      d ] ,.2.o.%.@.( a       ",
"      3.:.<.L * v $. .4.      ",
"    t ` >.=.Y I G ..X.m e     ",
"    i _ D F 1.;.#.x c n w     ",
"    d /     *.;.|     M q     ",
"    s +.z   &.;.{   j K 8     ",
"    r 6     V U g     ; #     ",
"            B S g             ",
"              b               ",
"              Y               ",
"              A               ",
"            > Z :             ",
"            = l $             ",
"            h N &             ",
"            k } &             ",
"              [               ",
"              J               ",
"              J               ",
"              I               ",
"              ~               ",
"              ^               ",
"              R               ",
"            < W ,             ",
"            1 W 3             ",
"          8 5 W 3 8           ",
"        @ 0 5 W 3 0           ",
"        X + - T o + X         ",
"              C               "
};
