/* XPM */
static char *_b86abab8a2b4431ec006227b699383aNxsdwq7sokknl5zj[] = {
/* columns rows colors chars-per-pixel */
"20 32 197 2 ",
"   c None",
".  c #141212",
"X  c #1A1617",
"o  c #1A1916",
"O  c #1A161B",
"+  c #1D1C1B",
"@  c #171919",
"#  c #2D1D16",
"$  c #221D1C",
"%  c #291F1A",
"&  c #321F1B",
"*  c #2B2316",
"=  c #25231D",
"-  c #2F291C",
";  c #3E271A",
":  c #372317",
">  c #37341D",
",  c #1E1C21",
"<  c #221F22",
"1  c #271F2D",
"2  c #242223",
"3  c #2A2525",
"4  c #26232C",
"5  c #2B232C",
"6  c #29292A",
"7  c #2A2822",
"8  c #332C24",
"9  c #352E29",
"0  c #302429",
"q  c #3D352C",
"w  c #2D2433",
"e  c #2E2B33",
"r  c #352C38",
"t  c #3B343B",
"y  c #383735",
"u  c #422B1D",
"i  c #47291E",
"p  c #502E1B",
"a  c #5E371F",
"s  c #483B2B",
"d  c #553925",
"f  c #483C33",
"g  c #523E32",
"h  c #472D25",
"j  c #48452A",
"k  c #544E2C",
"l  c #5A542B",
"z  c #414336",
"x  c #584A37",
"c  c #535036",
"v  c #66452C",
"b  c #714327",
"n  c #605A2F",
"m  c #624C3C",
"M  c #615735",
"N  c #6D643A",
"B  c #6C6839",
"V  c #716A3D",
"C  c #79733D",
"Z  c #392C41",
"A  c #393142",
"S  c #46384D",
"D  c #4B345C",
"F  c #4A3B54",
"G  c #462343",
"H  c #4A3661",
"J  c #6F3B6E",
"K  c #34444A",
"L  c #31415D",
"P  c #4F4154",
"I  c #53435D",
"U  c #5B4B59",
"Y  c #6B5B47",
"T  c #614C57",
"R  c #6B585D",
"E  c #7A5743",
"W  c #6F6C42",
"Q  c #666142",
"!  c #7C7849",
"~  c #5E4B6A",
"^  c #594766",
"/  c #5F4270",
"(  c #575870",
")  c #614A6A",
"_  c #614568",
"`  c #6B5967",
"'  c #675471",
"]  c #6A537A",
"[  c #725B7A",
"{  c #644879",
"}  c #576276",
"|  c #6B6962",
" . c #666377",
".. c #855631",
"X. c #807736",
"o. c #817644",
"O. c #827D47",
"+. c #82754B",
"@. c #8C6F52",
"#. c #8D7A62",
"$. c #968A3F",
"%. c #9C943F",
"&. c #8E8645",
"*. c #958B44",
"=. c #918248",
"-. c #9B9245",
";. c #898450",
":. c #948E5C",
">. c #989456",
",. c #A29748",
"<. c #A49A53",
"1. c #B09557",
"2. c #B1A94F",
"3. c #AEA557",
"4. c #B1A959",
"5. c #B1A855",
"6. c #9B856C",
"7. c #9F8066",
"8. c #A78C6A",
"9. c #AA8E74",
"0. c #A58B76",
"q. c #AF9477",
"w. c #B59677",
"e. c #B69D63",
"r. c #BCA560",
"t. c #B9AD77",
"y. c #C0B85F",
"u. c #C5986C",
"i. c #C89B72",
"p. c #C3AC6E",
"a. c #C5BD63",
"s. c #C9B36D",
"d. c #D4A772",
"f. c #C6A17A",
"g. c #CAC26B",
"h. c #D3CA6E",
"j. c #DAD27B",
"k. c #DFD97C",
"l. c #3F5A84",
"z. c #6B4B80",
"x. c #6A5580",
"c. c #7B5F8D",
"v. c #636281",
"b. c #746185",
"n. c #75648C",
"m. c #7A638D",
"M. c #6D7B95",
"N. c #814C81",
"B. c #845A97",
"V. c #81658F",
"C. c #826693",
"Z. c #846A94",
"A. c #886F9F",
"S. c #95609C",
"D. c #897192",
"F. c #8B6EA0",
"G. c #8F73A4",
"H. c #9372A5",
"J. c #9573A9",
"K. c #977BAE",
"L. c #9B7BB3",
"P. c #9F7BB9",
"I. c #A07CB7",
"U. c #7591AA",
"Y. c #9D8D89",
"T. c #97969A",
"R. c #AB9380",
"E. c #A59B98",
"W. c #9596BC",
"Q. c #8A95AC",
"!. c #CCA682",
"~. c #D4AF8C",
"^. c #D5B38C",
"/. c #D2B280",
"(. c #DAB797",
"). c #E8BB90",
"_. c #E7B98D",
"`. c #C5B4A1",
"'. c #E8C695",
"]. c #F3C899",
"[. c #E5C2A9",
"{. c #AB85C4",
"}. c #AC86CB",
"|. c #AD88CD",
" X c #B289C7",
".X c #B389C8",
"XX c #B690CF",
"oX c #BA8DD4",
"OX c #B78DD3",
"+X c #BB94DA",
"@X c #BC93D6",
"#X c #ADB7C2",
"$X c #C196DE",
"%X c #CC9BE9",
"&X c #C598E2",
"*X c #CEA0EB",
"=X c #E2D6CF",
/* pixels */
"              + @ @ @ @ @ o 7           ",
"            j n n C O.>.:.B k           ",
"          y B 4.5.r.a.g.h.2.C s         ",
"      8 - Q 3.j.j.k.a.%.2.5.<.! >       ",
"  + B t.<.*.$.-.*.g.j.g.-.$.-.3.!       ",
"    ! >.l 8.s.,.$.N C 4.g.-.$.&.j       ",
"    V O.% 9.'.s.e.N k B >.*.X.l 2       ",
"  2 c ;.> q.'.^.~.p.o.- q B n * $       ",
"      > ! /.0.e 8 ;.<.O.^.x j W =       ",
"      z k w.Y.A T.t.1.p.].m = j         ",
"        + 9.T.l.=X~.1.o.6.R Z O         ",
"        + 0.E.} ).d.o.$ 4 C.c.w 5       ",
"        2 0.[.(.i.i.@.A G.+X+X{.J.F     ",
"      A D.` 6.].i...U F.+X&X&XoX+XF .   ",
"    A ^ D.^ | 0.!.| x.|.%X&XL.C.+Xm.F   ",
"  f U n.4 U.M.S `.#XW.K.}.K.' D @X%Xm.$ ",
"$ 8.0.5 O c.B.J Q.W.c.w 5 5 ^ I.$XoXx.+ ",
"$ w.(.#.1 c.c.H U.( R 8.9.h ^ @XOX.X] O ",
"O q.].f.1 H J H U.y Y ]._.x ^ oX{.C.~ y ",
"= 0.!.#.0 < G #.Q.K Y ).u.d F J.H.P     ",
"  f 8 9   < _  X .e Y w.w.g + w 5       ",
"          . ^ {.x.m.[ g g ` b.' <       ",
"          . t ] { {.L.) ~ H.{.H.1       ",
"          6 2 1 z.I. X X XL.H.Z.r       ",
"            y r {.~ w w w w 5 w         ",
"              r XXF S G.G.C.I O         ",
"            6 w c.r ) *X%XOX[ ,         ",
"          % * * % X ^ {.{.L.~ O         ",
"        $ i b ..a & $ 5 3 4 , + +       ",
"        O # ; u & i a v p # * ; +       ",
"        y y y y y h d v i % % ; $       ",
"                  3 + $ + < < + 2       "
};
