/* XPM */
static char *d4e4f7b32a074bc5d56a1dc2efb60aa4FSoemEWvoIZuXz4Q[] = {
/* columns rows colors chars-per-pixel */
"26 32 161 2 ",
"   c None",
".  c #010101",
"X  c #060609",
"o  c #07080B",
"O  c #090A0E",
"+  c #0A0304",
"@  c #150D0A",
"#  c #110B06",
"$  c #0D0C13",
"%  c #030A15",
"&  c #130819",
"*  c #0E1118",
"=  c #14131D",
"-  c #11181F",
";  c #1A1914",
":  c #18120E",
">  c #261A09",
",  c #231A13",
"<  c #272016",
"1  c #322113",
"2  c #322419",
"3  c #392A1C",
"4  c #37281B",
"5  c #151620",
"6  c #1A1525",
"7  c #161923",
"8  c #1A1B25",
"9  c #1D1B2A",
"0  c #1A1D32",
"q  c #211C2F",
"w  c #241D33",
"e  c #1F202C",
"r  c #1B2233",
"t  c #1E2739",
"y  c #1F293C",
"u  c #2D2423",
"i  c #232535",
"p  c #222B3D",
"a  c #2B2D3E",
"s  c #292936",
"d  c #3E3638",
"f  c #523518",
"g  c #4F362E",
"h  c #583C2A",
"j  c #583830",
"k  c #563D32",
"l  c #61372B",
"z  c #3D413A",
"x  c #4B4A2E",
"c  c #594B33",
"v  c #55532D",
"b  c #604B3E",
"n  c #7A5639",
"m  c #5F7F3F",
"M  c #6C7231",
"N  c #767D3D",
"B  c #1F2A40",
"V  c #262F43",
"C  c #362D4D",
"Z  c #312846",
"A  c #263045",
"S  c #2A354C",
"D  c #2E3041",
"F  c #32364C",
"G  c #323447",
"H  c #2C3A51",
"J  c #353E54",
"K  c #3A3354",
"L  c #581D5C",
"P  c #43375F",
"I  c #691F6E",
"U  c #33424C",
"Y  c #354058",
"T  c #39455F",
"R  c #3B4761",
"E  c #565641",
"W  c #784A47",
"Q  c #4B654D",
"!  c #7D625A",
"~  c #424F6B",
"^  c #44506D",
"/  c #475366",
"(  c #51596C",
")  c #465473",
"_  c #4E5C7C",
"`  c #515D7D",
"'  c #5C687D",
"]  c #787768",
"[  c #9F5E3C",
"{  c #9D6646",
"}  c #8B6352",
"|  c #8F685A",
" . c #AD6B44",
".. c #BF7743",
"X. c #B67144",
"o. c #AE7B55",
"O. c #B97E5B",
"+. c #76883B",
"@. c #73A225",
"#. c #648547",
"$. c #B9991F",
"%. c #948E3A",
"&. c #81AD29",
"*. c #88B42D",
"=. c #D7B120",
"-. c #C8B23C",
";. c #D0B839",
":. c #EECF39",
">. c #BD8557",
",. c #BBA842",
"<. c #B3A458",
"1. c #9B8B60",
"2. c #B2876A",
"3. c #A19664",
"4. c #B68F7A",
"5. c #B1A66A",
"6. c #C88759",
"7. c #CB8B5C",
"8. c #D89057",
"9. c #D0A646",
"0. c #C98E64",
"q. c #E69F63",
"w. c #C0A06E",
"e. c #CDBC6B",
"r. c #EBAE78",
"t. c #EDAC73",
"y. c #E7CB48",
"u. c #546282",
"i. c #596587",
"p. c #58658B",
"a. c #5C6990",
"s. c #626E93",
"d. c #657196",
"f. c #6E7BA2",
"g. c #717DA5",
"h. c #727EA8",
"j. c #A76985",
"k. c #7D8498",
"l. c #7681A7",
"z. c #888B8E",
"x. c #8B8892",
"c. c #BF9A82",
"v. c #BD8993",
"b. c #AEA786",
"n. c #818AA6",
"m. c #B39FB9",
"M. c #BBA5BD",
"N. c #D2BC87",
"B. c #D9AC9F",
"V. c #ECB382",
"C. c #E7B38A",
"Z. c #F4BB89",
"A. c #E2AF87",
"S. c #D7B3A6",
"D. c #D8C89B",
"F. c #F8C795",
"G. c #F8C79B",
"H. c #FFD7A7",
"J. c #FFDAAF",
"K. c #FFDCB1",
"L. c #FFE1B4",
/* pixels */
"              . . . . . . X . . . .                 ",
"            . . . = e 6 9 9 6 w 6 . X               ",
"          . . . : e - 8 8 8 q 6 w 5 w &             ",
"          . . . . = i 8 8 8 5 w 6 i 6 .             ",
"        . X . . - i = 8 7 6 9 5 w & w & .           ",
"        O a X $ 9 $ 8 7 8 w 6 w = . X $ .           ",
"        o a a O o . * - = = 6 = X $ Z C $           ",
"        . o a G e @ $ $ $ $ $ & w K C O .           ",
"        . . O 8 * G a D C C C P = 9 $ . .           ",
"        . . . . $ 5 - 9 9 6 q C & . > # .           ",
"        . @ c g 4 . $ - = = 5 & 2 g >.4 .           ",
"        . 1 q.C.! = $ . . . X * ! 4.A.n :           ",
"        . 3 8.} 0 K p u c b d F F 0 } 8.3 .         ",
"      , g 3 6.l s 7 g 2.Z.Z.2.d 5 s l 6.3 g ,       ",
"      < 5.4 7.} x.& f t.G.G.t.f & x.} 7.2 w.<       ",
"      , c 1 ..| M.L W Z.K.K.Z.W L M.| ..1 v ;       ",
"        . >  .c.M.I j.H.K.J.H.j.I m.w. .> .         ",
"          + l V.S.v.B.K.J.J.J.B.v.S.C.l +           ",
"      r p H u X.r.H.K.K.J.K.J.L.H.r.X.u H y 0       ",
"    t J ` u.F j [ o.r.Z.G.G.Z.t.O.[ j F u.` Y t     ",
"  y T d.h.g.` 0 c 9.$.M N N M $.9.b 0 ` g.h.d.T y   ",
"  t ~ ` p.f.~ B ^ ] +.@.@.@.@.+.] / B ~ f.i.` ~ t   ",
"t T s.i.S ) B x ,.<.%.#.*.*.#.%.<.,.x B ) S i.s.T t ",
"p d.k.-.1.g % E e.b.3.Q *.@.Q 3.:.y.E % g 1.-.k.d.p ",
"R _ n.D.{ 0.n v y.e.<.' #.m ' l.;.5.Y n 0.{ D.n.` R ",
"A ~ ' N.7.F.o.( z.z.z.a.U U a.h.z.k.) o.F.7.N.' ~ A ",
"  p z =.{ V.>.) f.h.l.p.] ] i.h.f.h._ o.r.{ =.z p   ",
"      > @ ; u _ h.h.f.f.( ( f.h.h.f.` u , : >       ",
"              O t i.f.l.J J l.f.i.t O               ",
"              o r p A A = - A A B r o               ",
"              $ r S J r * * r Y S r O               ",
"                7 ~ ^ p . . p ^ ^ 7                 "
};
