/* XPM */
static char *_8c15915f3404e658e9f578e4df67792jjpc1XxcRzhWcYbn[] = {
/* columns rows colors chars-per-pixel */
"26 32 111 2 ",
"   c None",
".  c #020203",
"X  c #090807",
"o  c #050709",
"O  c #0B0B0B",
"+  c #0C0E12",
"@  c #110F14",
"#  c #110E18",
"$  c #0F1112",
"%  c #0E131B",
"&  c #111215",
"*  c #14141A",
"=  c #18151E",
"-  c #16191E",
";  c #1E1D19",
":  c #131621",
">  c #1A1625",
",  c #151A25",
"<  c #1A1E25",
"1  c #171E2C",
"2  c #1C1E2A",
"3  c #211C2C",
"4  c #1A2026",
"5  c #1D232D",
"6  c #1B2434",
"7  c #1D2739",
"8  c #1F293B",
"9  c #232432",
"0  c #222B35",
"q  c #282E37",
"w  c #272538",
"e  c #2A2339",
"r  c #252C3A",
"t  c #292C3D",
"y  c #2D323B",
"u  c #33373A",
"i  c #222C40",
"p  c #2D2E43",
"a  c #302742",
"s  c #312A46",
"d  c #332D49",
"f  c #382E4F",
"g  c #263043",
"h  c #2D3146",
"j  c #2C364C",
"k  c #2D384E",
"l  c #303047",
"z  c #33314A",
"x  c #30394C",
"c  c #2E3950",
"v  c #373250",
"b  c #3A3253",
"n  c #303B52",
"m  c #303C53",
"M  c #343D51",
"N  c #313C54",
"B  c #333D54",
"V  c #323D55",
"C  c #343F57",
"Z  c #353F57",
"A  c #3E3358",
"S  c #333F58",
"D  c #40345A",
"F  c #40345B",
"G  c #40355B",
"H  c #36425D",
"J  c #38435A",
"K  c #3D4964",
"L  c #3F4964",
"P  c #3E4B67",
"I  c #665F4E",
"U  c #746C53",
"Y  c #404963",
"T  c #454C64",
"R  c #414E6A",
"E  c #475471",
"W  c #485572",
"Q  c #4E5773",
"!  c #4F5773",
"~  c #4C5774",
"^  c #4D5977",
"/  c #4D5A79",
"(  c #4E5B7A",
")  c #505D7C",
"_  c #515D7D",
"`  c #978552",
"'  c #546080",
"]  c #566384",
"[  c #576384",
"{  c #586485",
"}  c #596688",
"|  c #5B6789",
" . c #5D6788",
".. c #5C698B",
"X. c #5E6B8F",
"o. c #616D91",
"O. c #616E92",
"+. c #667297",
"@. c #6B769C",
"#. c #6B779E",
"$. c #6C789F",
"%. c #6D79A0",
"&. c #6E7BA2",
"*. c #6F7BA2",
"=. c #6F7BA3",
"-. c #707CA4",
";. c #717DA5",
":. c #727EA6",
">. c #727EA7",
",. c #737FA7",
"<. c #7480A9",
/* pixels */
"              O O O $ O @ O O O O O &               ",
"          O = s 0 s 9 y t w p w d 9 s = O           ",
"        O = s h v l v z d z l z s b h s - X         ",
"      O & 2 2 - 3 s z d d l z z l 3 - < 5 & O       ",
"      * 9 w - 3 : 9 < t l l t 4 9 - 3 > w 9 &       ",
"    O 4 z v y z r < * 5 l h 5 * > r z y z z < O     ",
"    O < l z t r r b y r r r r y A r q r z h < O     ",
"    O 4 t p v r t v t r r r r r b r r v l y 5 O     ",
"    O w z p v t v t 0 0 r r r r t b r b p l e O     ",
"    O e z r t t r * 6 r 0 q r 5 * r y r r z e X     ",
"    O 2 y 0 5 - 0 $ 0 - & * < 5 $ 6 - 5 r t 5 O     ",
"    O < h l 5 $ 0 4 0 5 $ $ 5 0 4 0 & 5 l h < O     ",
"    O = 9 9 - @ t l d z w w s l l s & - 9 3 - O     ",
"      o X O @ # s A s b D D D D A t * O O o X       ",
"      o o + # O > s & e b f d f s O * $ O o o       ",
"      0 , O O . > > $ # 9 < # > > . o O O , 8       ",
"    7 N ' T . o O O . # > & & > O . . . T [ n 6     ",
"  6 n ' -.@. .Q o O O O @ O O O X . !  .@.;.[ N 6   ",
"  6 ^ &.,.+...-.! M x x x x k k M ! -. .+.,.&.^ 6   ",
"7 k O.<.<.{ S } ;.O.X.X.X.X.X.X.O.,. .Z { <.,.O.k 6 ",
"6 P ' @.$.L 1 E -.,.,.,.<.,.,.,.,.-.W 1 Y $.#.[ P 6 ",
"7 N P } Q 5 - E -.-.;.-.=.>.=.,.-.-.W : 5 Q { P N 7 ",
"6 1 j J 6 % j ) -.;.;.;.%.%.=.>.-.-._ j % 6 J j 1 6 ",
"  . . . + g / -.-.;.;.,.' ' ,.=.;.;.-./ i + . . .   ",
"        . , ( ;.;.;.;.,.P Y >.>.;.;.=.( , .         ",
"            j _ ;.;.,.} j j } >.<.=._ j             ",
"            7 h N S S j r 8 j S H m h 7             ",
"            % 7 j 6 1 6 : : 6 1 6 j 7 %             ",
"            o i R n j r + + i k c P r o             ",
"            o 5 H H H 7 + O 7 H H H 5 o             ",
"              o r u y +     $ y u r o               ",
"              O I ` U ;     ; U ` I O               "
};
