/* XPM */
static char *_90d798cfda643d88628ae5e49664d95zLnQp6dKseDmkqIR[] = {
/* columns rows colors chars-per-pixel */
"28 32 173 2 ",
"   c None",
".  c #010101",
"X  c #090502",
"o  c #05060A",
"O  c #03080C",
"+  c #0A0A0C",
"@  c #09080B",
"#  c #170D0A",
"$  c #1A120B",
"%  c #0D0C12",
"&  c #0E0D1D",
"*  c #100F13",
"=  c #110E18",
"-  c #121016",
";  c #14121B",
":  c #1F1A15",
">  c #22140E",
",  c #2B1C11",
"<  c #231B13",
"1  c #311F11",
"2  c #322317",
"3  c #161322",
"4  c #1A1525",
"5  c #141A24",
"6  c #191A25",
"7  c #161C2B",
"8  c #1C1D2A",
"9  c #1C1728",
"0  c #1E1F31",
"q  c #211B2E",
"w  c #231E22",
"e  c #221D3B",
"r  c #261F36",
"t  c #270B2B",
"y  c #1D222D",
"u  c #172030",
"i  c #1B2334",
"p  c #1E2739",
"a  c #38342E",
"s  c #212433",
"d  c #232A37",
"f  c #2A253C",
"g  c #232B3C",
"h  c #292D3E",
"j  c #352A35",
"k  c #383236",
"l  c #392B23",
"z  c #532D1B",
"x  c #4A2E24",
"c  c #583421",
"v  c #513426",
"b  c #435818",
"n  c #566415",
"m  c #414129",
"M  c #524C32",
"N  c #455D3A",
"B  c #6E492A",
"V  c #764229",
"C  c #7A512F",
"Z  c #644D39",
"A  c #67543E",
"S  c #2F2642",
"D  c #232D43",
"F  c #2C2B40",
"G  c #362E4D",
"H  c #263045",
"J  c #293246",
"K  c #2A354B",
"L  c #37384A",
"P  c #353E54",
"I  c #433E46",
"U  c #3F4248",
"Y  c #3A445D",
"T  c #3B4761",
"R  c #3E4A65",
"E  c #3F4C6A",
"W  c #434747",
"Q  c #4F534E",
"!  c #455B5A",
"~  c #685149",
"^  c #7B5E45",
"/  c #556C5B",
"(  c #7E6149",
")  c #6E7D4F",
"_  c #7D7448",
"`  c #69674D",
"'  c #424F6B",
"]  c #414B64",
"[  c #495261",
"{  c #515565",
"}  c #495573",
"|  c #4B597A",
" . c #4E5A74",
".. c #505C7D",
"X. c #5C5B74",
"o. c #5F6467",
"O. c #864D38",
"+. c #8D553D",
"@. c #8F5033",
"#. c #925234",
"$. c #99623B",
"%. c #926E4E",
"&. c #836F57",
"*. c #966D50",
"=. c #84765B",
"-. c #9F7C57",
";. c #85654A",
":. c #B16C40",
">. c #B97643",
",. c #86467C",
"<. c #8F7268",
"1. c #967764",
"2. c #807E72",
"3. c #A27E68",
"4. c #A27E74",
"5. c #C17E66",
"6. c #719C29",
"7. c #709B30",
"8. c #7BA828",
"9. c #9B8317",
"0. c #8BB33A",
"q. c #B7A236",
"w. c #D0A813",
"e. c #ECC10D",
"r. c #8A8060",
"t. c #8F907D",
"y. c #8E8576",
"u. c #B98E72",
"i. c #BFA461",
"p. c #DC9456",
"a. c #DA955B",
"s. c #DF9C63",
"d. c #DB9A64",
"f. c #C6956A",
"g. c #D3A768",
"h. c #E2A16C",
"j. c #ECAE78",
"k. c #ECB47F",
"l. c #D7C04E",
"z. c #E5C44A",
"x. c #5F6B8E",
"c. c #556283",
"v. c #5F6C92",
"b. c #656C88",
"n. c #626E93",
"m. c #6A769C",
"M. c #677398",
"N. c #6D79A1",
"B. c #717DA5",
"V. c #737FA8",
"C. c #854B87",
"Z. c #98628C",
"A. c #7C8080",
"S. c #7581AB",
"D. c #8E939A",
"F. c #A19B83",
"G. c #AEA787",
"H. c #B1AAA4",
"J. c #DCA980",
"K. c #E1AC81",
"L. c #ECB486",
"P. c #EBB689",
"I. c #F0BC8E",
"U. c #F9BD8C",
"Y. c #EFBD92",
"T. c #F4C394",
"R. c #FCC594",
"E. c #FDD7AC",
"W. c #FFD9AE",
"Q. c #FFDFB1",
"!. c #FFE3B7",
"~. c #D6CFCB",
"^. c #DCD0C5",
/* pixels */
"    . . . . . .                                         ",
"  . ; y 6 y 8 % . . . . .                               ",
". ; s 8 s 8 y 8 q f 9 S ; . . .                         ",
". y G h 8 s y 8 h h d h s y y y o . . .                 ",
". y r G G G G f 8 8 8 6 8 9 9 q 8 y ; @ .               ",
". 6 y s h f r q 9 y 8 8 @ o + S s s 8 ; ; + .           ",
". 3 d 6 s s 9 8 7 % % O X B . & 3 d 8 4 4 3 = %         ",
"  % 8 s y d 6 = % . $ ;.%.h.C B x w ; - = ; 3 + .       ",
"    % ; % ; O . . < ^ 1.4.1.h.p.:.< o * % * * X .       ",
"      . . . 2 Z l a <.e e s J.h.p.c # ; - * * @ .       ",
"          . ;.R.3.9 r f I ~ K.L.a.#.> % * % - X .       ",
"          . ^ U.u.a . j H.P.L.L.a.@.v : o X * @ .       ",
"          . ( R.j.+.t C.~.P.I.I.a.V f.A X ; ; o .       ",
"          . &.!.U.f.,.Z.^.Y.W.W.s., _ M @ - % . . . .   ",
"          . &.!.W.W.E.W.W.W.W.W.s.1 . + + + o . .   . . ",
"          . &.!.W.W.W.W.W.W.W.W.a.1 o - * o . .         ",
"          . B k.W.W.W.W.W.W.E.P.+.$ X % + @ .           ",
"            X B h.T.W.W.E.E.P.+.> . . . .               ",
"              $ : x +.+.+.+.O.j P Y d u                 ",
"                    b b n w.i.[ R x.n.} K               ",
"                  6.8.7.! t.D. .x.N.S.m.Y u             ",
"                  8.0.) q.G.Y J | ..M.S...J             ",
"                  N / o.l.` r.d | x.c.M.m.R u           ",
"                  U y.{ -.y.g.=.b.m.n.m.S. .u           ",
"                  W y.X.O.T.a.z.Q x.S.S.m.Y %           ",
"                  L A.n.c s.>.e.m | n.n.R 5             ",
"                  W G.n.k %.z 9.a K J J 5 o             ",
"                  D R m.S.| p D H J u + 5 p             ",
"                    g E x.n.x.E Y T T J i               ",
"                      i u p d g g p u i                 ",
"                        + Y ' ' ' H O                   ",
"                        o p E '                         "
};
