/* XPM */
static char *_12c03869a2a41b4eb4a3be9bed9afadvqcZp2cyu722Xi03[] = {
/* columns rows colors chars-per-pixel */
"27 32 172 2 ",
"   c None",
".  c #010101",
"X  c #060609",
"o  c #07080A",
"O  c #0A0A0C",
"+  c #1D0B06",
"@  c #16180F",
"#  c #0D0D13",
"$  c #0F0D19",
"%  c #100F13",
"&  c #110E19",
"*  c #0F1319",
"=  c #121016",
"-  c #14121C",
";  c #13181E",
":  c #371D15",
">  c #2E2113",
",  c #3B3018",
"<  c #0E0F25",
"1  c #151422",
"2  c #191524",
"3  c #141923",
"4  c #1B1827",
"5  c #1C1C2A",
"6  c #171D29",
"7  c #141E32",
"8  c #230824",
"9  c #201B2E",
"0  c #221D31",
"q  c #241D3A",
"w  c #1C222F",
"e  c #1B2333",
"r  c #1F283A",
"t  c #392727",
"y  c #34302C",
"u  c #212532",
"i  c #222935",
"p  c #242B3C",
"a  c #2B243D",
"s  c #33383B",
"d  c #59391F",
"f  c #4A251A",
"g  c #443F28",
"h  c #593B21",
"j  c #633D23",
"k  c #55451C",
"l  c #744A2C",
"z  c #7F522D",
"x  c #6E533A",
"c  c #78573C",
"v  c #486D2C",
"b  c #2E2641",
"n  c #222D42",
"m  c #362F4E",
"M  c #2B3448",
"N  c #392F51",
"B  c #2F3A51",
"V  c #2D3B55",
"C  c #393152",
"Z  c #333F55",
"A  c #323D5A",
"S  c #58195E",
"D  c #733D44",
"F  c #374154",
"G  c #39445D",
"H  c #3C4964",
"J  c #484349",
"K  c #5D4046",
"L  c #4A4856",
"P  c #5F4B55",
"I  c #57535A",
"U  c #665849",
"Y  c #715641",
"T  c #7B5E49",
"R  c #614C56",
"E  c #655556",
"W  c #717F43",
"Q  c #7F6556",
"!  c #7A765A",
"~  c #424E6A",
"^  c #45516E",
"/  c #48566B",
"(  c #525B6C",
")  c #495677",
"_  c #525E7D",
"`  c #4F6660",
"'  c #767B7C",
"]  c #835F14",
"[  c #8F6816",
"{  c #80741F",
"}  c #804F37",
"|  c #895536",
" . c #A56A3D",
".. c #B16C3F",
"X. c #A9772C",
"o. c #835541",
"O. c #806148",
"+. c #84795D",
"@. c #B46F41",
"#. c #A7704C",
"$. c #8C7B6A",
"%. c #A17F64",
"&. c #5C8C1E",
"*. c #5E8C22",
"=. c #6B8D39",
"-. c #699326",
";. c #7C8546",
":. c #988614",
">. c #80873E",
",. c #87AE3E",
"<. c #89B52C",
"1. c #DEA427",
"2. c #99925C",
"3. c #A08D5E",
"4. c #A79847",
"5. c #8E8B78",
"6. c #9B8865",
"7. c #AD8364",
"8. c #B78864",
"9. c #AF9666",
"0. c #BE916B",
"q. c #BB9A79",
"w. c #D2884D",
"e. c #CB8F5E",
"r. c #CAB447",
"t. c #E0AB55",
"y. c #C38F6E",
"u. c #C39274",
"i. c #CC9B76",
"p. c #D29768",
"a. c #C4B76D",
"s. c #DBA376",
"d. c #DEA87F",
"f. c #E5A269",
"g. c #E6A467",
"h. c #E5A671",
"j. c #556283",
"k. c #596587",
"l. c #5E6A8C",
"z. c #5F6C90",
"x. c #626E92",
"c. c #667297",
"v. c #69769C",
"b. c #6B779A",
"n. c #717992",
"m. c #6C79A1",
"M. c #727EA6",
"N. c #8F7D93",
"B. c #7581AA",
"V. c #818583",
"C. c #959699",
"Z. c #AB8FB2",
"A. c #C49096",
"S. c #C2A786",
"D. c #D5A093",
"F. c #EDB583",
"G. c #EFB889",
"H. c #F1B583",
"J. c #F3BC8B",
"K. c #FBBF8D",
"L. c #DCBBAF",
"P. c #F6C08C",
"I. c #F9C897",
"U. c #DFC2A6",
"Y. c #E3C7AD",
"T. c #F9CEA3",
"R. c #FDD2A5",
"E. c #FFD7AA",
"W. c #FFDAAE",
"Q. c #F4D2AE",
"!. c #FFDDB2",
"~. c #FFE0B3",
/* pixels */
"                                        . . . . .     ",
"                              . . . . O 4 9 4 u ; .   ",
"                      . . . O u a 0 b 4 u 5 u 5 i - . ",
"              . . . . ; u u i p p i p u 5 u 5 p C u . ",
"            . . # 5 w w 4 4 4 4 4 4 2 0 C C N m 9 u X ",
"        . . & - 2 u 9 a 4 . X - u 5 u 4 0 0 p 0 u 2 . ",
"      . & & 2 2 2 u 5 $ X h j . X X = u 4 u u 4 i 2 . ",
"      . % 2 % # # # t |  .e.s.y.x . . O # p 5 u 4 o   ",
"      . O % O = = . l w.h.%.R R T T . . . O X O X     ",
"      . O = % - % :  .f.G.O.< q L J t 7.T .           ",
"      . O % o O . f ..h.G.i.$.L % 1 E K.8..           ",
"      . O = O o Y | ..h.F.H.U.V.8 > 8.J.8..           ",
"  . . . . - = o 9.x | d.R.P.Y.Z.S D f.R.q..           ",
". . . . . % O O g @ z J.~.E.Q.L.A.D.I.!.S..           ",
"        . . O = X . | K.~.W.W.!.~.!.W.!.S..           ",
"          . O = # . j s.E.W.W.W.W.W.!.E.8..           ",
"            o X X . + c D.!.~.!.~.W.I.p.d             ",
"              # # 3 5 t | 8.u.u.u.7.c h               ",
"              M G _ ) Z U X.] k k , .                 ",
"            e ^ m.B.x.) V.a.=.v &.*.                  ",
"            n l.M.c.x.^ H n.5.;.,.<.-.                ",
"          e ^ v.c.j._ V s ! r.4.` =.v                 ",
"          e x.M.k.c.m.( 3.7.! 6.( I e                 ",
"          3 _ M.M.M.) 2.t.d.0.K ' ! 7                 ",
"          . p k.v.v.A :.1.p.#.I n.L e                 ",
"            X n Z G n z [ | x F C.+.7                 ",
"            e # o e n n w F l.B.k.V e                 ",
"            r e F H H H _ c.x._ V e                   ",
"              e w w r r r r e e e                     ",
"                . ; V H ^ ^ r .                       ",
"                  . * F / F ; .                       ",
"                  . , U W ;.y .                       "
};
